<?xml version="1.0" standalone="no"?>
<!DOCTYPE svg PUBLIC "-//W3C//DTD SVG 20010904//EN"
 "http://www.w3.org/TR/2001/REC-SVG-20010904/DTD/svg10.dtd">
<svg version="1.0" xmlns="http://www.w3.org/2000/svg"
 width="512.000000pt" height="512.000000pt" viewBox="0 0 512.000000 512.000000"
 preserveAspectRatio="xMidYMid meet">
<metadata>
Created by potrace 1.11, written by Peter Selinger 2001-2013
</metadata>
<g transform="translate(0.000000,512.000000) scale(0.100000,-0.100000)"
fill="#000000" stroke="none">
<path d="M2310 4625 c-307 -39 -574 -132 -839 -293 -257 -155 -528 -426 -680
-679 -29 -49 -57 -95 -62 -103 -11 -17 -80 -167 -104 -225 -14 -33 -50 -140
-61 -180 -7 -25 -36 -142 -40 -160 -2 -11 -6 -31 -9 -45 -23 -106 -30 -204
-30 -390 1 -186 6 -242 36 -400 141 -740 724 -1376 1454 -1586 35 -10 94 -25
115 -30 14 -2 31 -7 38 -9 52 -19 244 -38 402 -40 211 -3 294 5 485 46 87 18
248 67 310 94 17 7 48 20 70 30 284 120 579 346 784 600 55 68 191 266 191
278 0 2 18 37 39 76 70 126 145 337 187 524 34 149 51 482 34 637 -14 118 -17
139 -40 244 -142 655 -628 1225 -1256 1477 -69 27 -208 73 -254 84 -8 2 -46
10 -83 19 -38 9 -92 19 -120 22 -29 3 -59 8 -67 11 -32 11 -409 10 -500 -2z"/>
</g>
</svg>
